<svg xmlns="http://www.w3.org/2000/svg" width="425" height="594" viewBox="0 0 425 594">
    <g fill="none" fill-rule="evenodd">
        <path fill="#E06A34" fill-rule="nonzero" d="M197 145.145h-.732l-.268.71c.388-.095.74-.344 1-.71zM176.87 144l-1.87 2a60.626 60.626 0 0 0 2-1.992l-.13-.008zM206.685 145l-.48 3.661s-.715.698.523 1.339c-.122-.311 0-2.23.272-4.981l-.315-.019z"/>
        <path fill="#FEF2F6" fill-rule="nonzero" d="M313.58 158.684a381.244 381.244 0 0 0-20.58 84.97c4.944 10.555 15.92 17.023 27.645 16.29 11.724-.734 21.791-8.519 25.355-19.606L320.88 156c-1.048.436-6.062 2.254-7.3 2.684z" opacity=".103"/>
        <path fill="#E6004E" fill-rule="nonzero" d="M243.033 149.629a54 54 0 0 1 25.307.956c11.211-1.542 33.742-6.532 33.742-6.532s4.641 1.35 31.788-59.38c0-4.25-.452-14.205 7.13-18.646C304.005 23.953 250.681-.111 194.686 0 87.093.109 0 87.356 0 195.072 0 285.977 62.117 362.352 146.187 384c.738-22.463 1.368-42.34 1.368-44.889 2.878-51.05 12.135-72.048 12.135-74.725 6.525-17.569.146-29.313-1.274-38.566 0-.058-1.91-12.81-1.91-12.86-2.516 5.195-5.029 10.39-7.537 15.58l-7.099 14.658c-3.183 5.83-4.304 7.067-5.093 10.565-1.165 5.06.185 6.96-.312 11.732-.37 3.607-1.324 4.276-6.271 14.205-6.634 13.306-9.74 21.794-11.632 24.948a13.784 13.784 0 0 0-1.336 2.88 14.293 14.293 0 0 0-.605 2.64 585.29 585.29 0 0 1-.293 9.666c-.23 6.08-.357 9.183-.739 12.644a100.03 100.03 0 0 1-1.91 11.209c.039.707.077 1.37.115 2.077.223.638.274.963.153 1.046-.121.082-.637-.294-1.484-1.192a14.836 14.836 0 0 0-.636-4.703c-.484-1.523-1.133-3.588-3.043-4.83a5.651 5.651 0 0 0-1.057-.536 9.753 9.753 0 0 0-3.68 4.085 6.237 6.237 0 0 0-.675 2.186 5.166 5.166 0 0 0 .465 3.186c.134.242.197.293 1.146 1.784.388.638.516.823.445.918-.07.096-.636.057-2.502-.937a144.065 144.065 0 0 1-6.608-9.29 36.289 36.289 0 0 1-4.004-8.655 8.93 8.93 0 0 1-.331-3.186 8.635 8.635 0 0 1 .878-3.09 140.49 140.49 0 0 0 7.602-9.082c2.05-2.664 3.902-5.27 5.583-7.78 0 0 5.864-49.3 18.82-71.119 3.596-6.277 5.035-15.026 5.035-15.026s5.157-59.903 18.316-59.495c6.265-2.727 13.446-5.442 18.202-9.323l3.489-2.256a48.685 48.685 0 0 0 3.298-2.466 170.361 170.361 0 0 1-3.107-4.193c-6.156-8.654-5.73-10.311-7.83-12.503a3.436 3.436 0 0 1-1.026-1.957 3.5 3.5 0 0 1 .72-2.364 26.781 26.781 0 0 1 2.056-5.461c.808-1.58.968-1.485 2.056-3.6.974-1.913 1.274-2.76 2.26-4.016.58-.652 1.199-1.27 1.853-1.848.974-1.057 2.012-2.905 2.056-6.372l.23-3.735V89.25a.95.95 0 0 0 .299-.338 1.173 1.173 0 0 0-.325-1.275c-.637-5.659-.51-7.78-.204-8.545.389-.95.425-2.008.102-2.983a27.755 27.755 0 0 1 8.328-7.647 28.38 28.38 0 0 1 15.63-3.894 10.18 10.18 0 0 1 6.48-1.956c.943.077 3.1.414 8.124 4.939a58.403 58.403 0 0 1 7.27 7.908 103.97 103.97 0 0 1 1.204 13.204c.095 3.626 0 7.01-.23 10.094v3.99l7.341 6.532.637 6.837.47 5.736c4.196 3.078 12.772 11.77 14.822 14.587.425.476.73 1.05.885 1.67.06.692.036 1.39-.07 2.077-.045.79 0 1.204 0 1.854.05.969.012 2.989-.204 7.59z" opacity=".05"/>
        <path fill="#E6004E" fill-rule="nonzero" d="M376.22 205.962l5.878-66.614A184.566 184.566 0 0 0 376.303 122l-49.776 17.754c-1.971 5.877-3.422 10.1-3.517 10.1-.286.812-1.756 1.782-4.039 2.84l24.31 83.354c.044.072.069.156.07.24 0 2.296-7.716 14.343-22.599 14.343s-27.19-10.519-27.19-12.814c0-.11.342.426.378.322l18.257-81.28c-9.782 3.171-26.37 6.26-35.465 8.51a100.499 100.499 0 0 1-10.425 2.537l-1.233.215-.535.108c-10.863 2.403-17.554 11.356-21.167 18.096a26.886 26.886 0 0 0-.674 5.745c-1.336 6.34-4.058 21.285-6.443 34.651-1.457 13.708-4.637 29.54-4.217 32.388 3.23 3.17 5.82 5.966 5.82 5.966 3.663 5.434 9.127 23.194 11.117 33.726a401.67 401.67 0 0 1 1.323 7.355L262.23 374C329.58 349.1 379.37 288.149 388 214.649c-6.863-3.063-11.78-7.19-11.78-8.687z" opacity=".05"/>
        <path fill="#E6004E" fill-rule="nonzero" d="M388.83 205.123c.1-2.562.17-5.13.17-7.716A188.441 188.441 0 0 0 383.218 151c-2.77 23.783-6.838 56.865-7.218 60 .411-1.776 5.308-4.381 12.83-5.877zM344.136 113.26l26.864-.197A188.433 188.433 0 0 0 353.723 84a12.523 12.523 0 0 1-1.095 1.461c-2.428 2.799-4.243 2.198-4.243 2.198l-2.835 1.802-6.464 19.193L335 121l9.136-7.74z" opacity=".05"/>
        <path fill="#000" fill-rule="nonzero" d="M202.425 132.509c-3.304 15.601-3.226 13.465-5.285 14.154-8.583 2.826-13.456-12.893-15.14-18.47 1.168 2.092 2.143 4.297 3.272 6.415 2.33 4.379 5.092 8.788 9.39 11.446a1.98 1.98 0 0 0 1.013.38c.684 0 1.155-.622 1.51-1.206 2.33-3.726 4.718-7.639 4.847-11.968.045-1.447-.446-1.993.084-3.354L204 125"/>
        <path fill="#000" fill-rule="nonzero" d="M103.78 347c-.296-.51-.63-1.013-.94-1.49-.17-.236-.347-.466-.536-.689a2.808 2.808 0 0 0-.63-.548h-.038a60.078 60.078 0 0 1-3.677-4.624 47.582 47.582 0 0 1-3.154-4.995 26.1 26.1 0 0 1-2.308-5.472 10.29 10.29 0 0 1-.113-5.943v-.039l.037-.044c1.123-1.23 2.164-2.619 3.217-3.95l3.153-4.058 6.2-8.167-.057.134a363.45 363.45 0 0 1 6.786-38.318 191.841 191.841 0 0 1 5.355-18.729 98.12 98.12 0 0 1 3.626-9.058c.322-.746.7-1.472 1.06-2.204.36-.733.75-1.446 1.148-2.16a88.73 88.73 0 0 0 1.141-2.115c.366-.7.681-1.44.984-2.179a56.143 56.143 0 0 0 2.8-9.186l.246-1.178c.07-.376.158-.816.196-1.14l.258-2.421c.185-1.618.377-3.232.574-4.842.814-6.44 1.779-12.868 2.97-19.257a164.681 164.681 0 0 1 4.554-18.978 55.538 55.538 0 0 1 3.67-9.122 19.326 19.326 0 0 1 2.858-4.147 8.572 8.572 0 0 1 2.068-1.644c.82-.464 1.747-.7 2.687-.681l-.328.063c5.632-2.497 11.296-4.86 16.505-8.014a65.472 65.472 0 0 0 7.474-5.236 82.691 82.691 0 0 0 6.76-6.16l-.264.637-.07-24.558 1.01-.975c-.076 0 0 0 0 0h.05a.74.74 0 0 0 .34-.255c.176-.25.294-.538.347-.84a5.68 5.68 0 0 0 .095-1.16c0-.407-.05-.834-.088-1.274l.416.688a12.18 12.18 0 0 1-3.154-3.026 7.932 7.932 0 0 1-1.482-4.338c-.031-1.395-.082-2.682-.208-4.026a54.55 54.55 0 0 0-.523-3.969v-.108c-.082-2.026-.215-4.045-.246-6.07a162.686 162.686 0 0 1 0-6.078v-.14l.031-.109c.567-1.78 1.331-3.489 2.277-5.096a25.237 25.237 0 0 1 3.273-4.46 19.189 19.189 0 0 1 9.36-5.682c3.596-.88 7.363-.739 10.885.408a28.994 28.994 0 0 1 9.555 5.16l.063.051.044.064a32.26 32.26 0 0 1 2.523 4.07c.38.724.712 1.473.99 2.243.144.4.258.811.34 1.23.083.419.12.846.108 1.273-.038 3.186-.19 6.294-.315 9.441l-.41 9.41-.454 9.402v.14l-.082.102a41.194 41.194 0 0 1-4.157 4.134 26.12 26.12 0 0 0-3.922 4.198 9.74 9.74 0 0 0-1.262 2.549c-.277.898-.435 1.91-.63 2.822L201.542 132l-.183-.038 1.066-5.734c.195-.955.315-1.91.586-2.879.295-.951.72-1.856 1.262-2.688a26.833 26.833 0 0 1 3.891-4.396 40.865 40.865 0 0 0 3.967-4.16l-.088.236.51-18.818c.07-3.128.165-6.294.146-9.384 0-1.388-.63-2.77-1.35-4.108a33.492 33.492 0 0 0-2.479-3.823l.108.115a27.014 27.014 0 0 0-4.295-2.803 26.257 26.257 0 0 0-4.75-1.95 18.246 18.246 0 0 0-10.002-.286 17.416 17.416 0 0 0-8.552 5.256 23.6 23.6 0 0 0-2.99 4.14 24.688 24.688 0 0 0-2.055 4.657l.031-.248c0 2 0 4 .032 6 .031 2 .17 3.995.258 5.995v-.108c.24 1.363.425 2.737.555 4.121.133 1.37.196 2.803.227 4.128.044 1.18.44 2.32 1.136 3.268a10.35 10.35 0 0 0 2.667 2.548l.379.255.044.433c.06.497.093.997.1 1.498a8.08 8.08 0 0 1-.138 1.58 4.078 4.078 0 0 1-.744 1.668 2.807 2.807 0 0 1-.801.682 2.86 2.86 0 0 1-.517.217c-.095 0-.177.05-.278.063-.122.01-.244.01-.366 0l1.01-.974-.07 24.557v.383l-.258.254a86.842 86.842 0 0 1-6.938 6.256 67.338 67.338 0 0 1-7.694 5.313c-5.367 3.185-11.12 5.536-16.745 7.982l-.164.077h-.164c-1.324-.064-2.604.745-3.633 1.834a17.936 17.936 0 0 0-2.642 3.822 54.315 54.315 0 0 0-3.614 8.855 162.196 162.196 0 0 0-4.616 18.787 334.38 334.38 0 0 0-3.066 19.162l-.599 4.816-.265 2.408c-.063.484-.145.834-.227 1.274l-.252 1.204a57.632 57.632 0 0 1-2.914 9.364 39.785 39.785 0 0 1-1.028 2.236c-.36.733-.788 1.465-1.173 2.153-.384.688-.794 1.395-1.141 2.122-.347.726-.738 1.42-1.06 2.16a97.564 97.564 0 0 0-3.639 8.95c-2.15 6.083-3.91 12.313-5.455 18.595a362.613 362.613 0 0 0-7.095 38.12v.076l-.045.064-6.275 8.141-3.153 4.04c-1.079 1.337-2.094 2.681-3.292 3.968l.056-.083a9.97 9.97 0 0 0 .082 5.734c.54 1.884 1.289 3.7 2.233 5.414a49.043 49.043 0 0 0 3.116 4.988 58.265 58.265 0 0 0 3.626 4.625h-.044c.27.167.507.383.7.637.189.223.366.465.536.707.34.49.63 1 .933 1.517l-.17.025z"/>
        <path fill="#000" fill-rule="nonzero" d="M209.763 119.171l-3.533 31.457v.076a.638.638 0 0 0 .076.88c.269.25.587.442.934.56.725.251 1.475.422 2.237.51 1.535.19 3.08.282 4.626.274 3.095 0 6.196-.165 9.29-.408 6.184-.503 12.348-1.274 18.5-2.115v.37l-16.218-1.11v-.413l16.217 1.108h-.076a40.98 40.98 0 0 1 6.666-1 63.884 63.884 0 0 1 6.717-.153c2.243.102 4.448.242 6.698.56 1.118.122 2.217.339 3.323.51 1.106.173 2.199.44 3.298.638h-.095c2.917-.408 5.827-.924 8.731-1.447 2.904-.522 5.802-1.09 8.693-1.669a883.98 883.98 0 0 0 17.342-3.613l.26.064c0-.032-.088-.045-.076-.045h.038l.172-.076c.12-.07.248-.178.375-.261.241-.198.47-.453.705-.676.432-.516.884-1.006 1.271-1.573.826-1.077 1.55-2.237 2.3-3.371.75-1.134 1.43-2.326 2.104-3.517.674-1.192 1.36-2.37 2.014-3.575l1.945-3.619c.635-1.204 1.27-2.434 1.906-3.644 1.271-2.434 2.46-4.9 3.673-7.353a708.831 708.831 0 0 0 7.035-14.853c2.32-4.963 4.53-9.984 6.787-14.973v.16c0-1.912 0-3.824.152-5.735.156-1.929.547-3.831 1.163-5.665a14.869 14.869 0 0 1 2.898-5.052 13.873 13.873 0 0 1 4.74-3.39l.083-.032h.082a8.603 8.603 0 0 1 2.155.465c.673.21 1.334.453 1.982.714a38.422 38.422 0 0 1 3.813 1.758 26.551 26.551 0 0 1 3.584 2.243c.579.437 1.115.928 1.601 1.466A3.827 3.827 0 0 1 357 75.723V75.876c-.324 1.274-.635 2.548-.998 3.823a18.507 18.507 0 0 1-1.474 3.727 13.555 13.555 0 0 1-2.46 3.218 6.945 6.945 0 0 1-1.715 1.191c-.33.157-.678.272-1.036.344a2.65 2.65 0 0 1-1.2 0l.393-.05-2.917 1.822.191-.249-6.545 19.695-6.431 19.72-6.5 19.695-1.685 4.913c-.146.414-.286.815-.451 1.274l-.076.172v.051c0 .038 0 0-.057.102a.635.635 0 0 1-.464.261 1.409 1.409 0 0 1-.204.09l-.546.197-2.434.88-9.748 3.478c-6.5 2.307-13.027 4.569-19.585 6.729-6.558 2.16-13.141 4.237-19.884 5.887l-1.27.306-1.272.248-2.541.504c-.84.159-1.678.306-2.491.535-.814.23-1.653.414-2.453.7a28.772 28.772 0 0 0-8.967 4.652 20.929 20.929 0 0 0-6.15 7.844 24.363 24.363 0 0 0-2.11 9.787v.121c-1.011 4.976-1.907 9.984-2.848 14.986l-2.688 15.05-5.268 30.055v-.306a26.9 26.9 0 0 0 1.907 4.39 34.578 34.578 0 0 0 2.605 4.09 57.05 57.05 0 0 0 1.519 1.912l.807.911c.298.34.566.704.8 1.09a25.652 25.652 0 0 1 2.142 4.62c1.157 3.14 2.06 6.333 2.898 9.557a247.679 247.679 0 0 1 2.288 9.665c1.404 6.461 2.637 12.96 3.749 19.479l3.431 19.503 13.745 78.015.058.325-.178.287-16.389 26.098.127-.344c-1.15 7.302-2.472 14.553-4.048 21.772-.8 3.606-1.658 7.2-2.688 10.768-.52 1.784-1.08 3.562-1.74 5.314a23.767 23.767 0 0 1-2.543 5.174l.165-.376c-.673 3.472-1.22 7.009-1.76 10.526a816.133 816.133 0 0 0-1.538 10.59 1818.823 1818.823 0 0 0-2.815 21.255v-.306l7.397 38.077v.134l.14 2.549-.972-.95h19.172l.108.835 1.093 8.78-1.004-.834 17.793-1.096 1.035-.07v1.045l-.572 22.982V594h-.978l-159.292-.35H119v-.58l.07-22.983v-.522h.521l16.973.599-.47.427.585-9.055.336.434a30.991 30.991 0 0 1-3.895-1.115 20.437 20.437 0 0 1-3.692-1.72 7.343 7.343 0 0 1-2.936-2.944 3.75 3.75 0 0 1-.318-2.154c.127-.707.39-1.382.776-1.988h.031a42.242 42.242 0 0 0 3.813-4.919c.578-.866 1.17-1.727 1.703-2.625.534-.898 1.1-1.771 1.614-2.683a105.55 105.55 0 0 0 5.611-11.182 82.12 82.12 0 0 0 4.106-11.877 58.866 58.866 0 0 0 1.938-12.354l-.858-3.74.184-.045.896 3.734a58.606 58.606 0 0 1-1.836 12.501 82.928 82.928 0 0 1-4.004 11.928c-1.62 3.87-3.465 7.64-5.528 11.29a67.418 67.418 0 0 1-1.595 2.715c-.547.892-1.119 1.777-1.69 2.657a42.743 42.743 0 0 1-3.813 5.046l.044-.057a4.927 4.927 0 0 0-.635 1.72 3.085 3.085 0 0 0 .273 1.752 6.75 6.75 0 0 0 2.675 2.6 19.572 19.572 0 0 0 3.565 1.612c1.246.436 2.52.787 3.813 1.051l.356.077v.363l-.509 9.06v.44h-.444l-16.974-.497.528-.51.07 22.983-.579-.574 159.165-.363-.922.905.515-22.983 1.01.975-17.792 1.096-.896.058-.108-.892-1.093-8.78.94.834H241.32l-.05-.905-.134-2.548v.127l-7.384-38.09v-.299c.915-7.094 1.866-14.177 2.853-21.25.5-3.538 1.015-7.074 1.544-10.608.54-3.537 1.093-7.067 1.773-10.61l.038-.184.127-.185a22.581 22.581 0 0 0 2.295-4.721c.635-1.695 1.181-3.428 1.696-5.18a158.978 158.978 0 0 0 2.682-10.647c1.582-7.156 2.923-14.394 4.08-21.664l.031-.191.096-.153 16.452-26.124-.121.637-13.548-78.053-3.393-19.516a458.465 458.465 0 0 0-3.699-19.42 247.874 247.874 0 0 0-2.256-9.61c-.82-3.185-1.715-6.371-2.834-9.404a24.677 24.677 0 0 0-1.995-4.352 7.646 7.646 0 0 0-.636-.905l-.832-.936c-.547-.637-1.08-1.274-1.576-1.975a31.887 31.887 0 0 1-4.74-8.92l-.045-.14.032-.167 5.325-30.074 2.732-15.03c.928-5.002 1.856-10.01 2.885-15.006v.121a25.628 25.628 0 0 1 2.199-10.322 22.234 22.234 0 0 1 6.526-8.283 29.958 29.958 0 0 1 9.348-4.804c.826-.3 1.678-.504 2.542-.72.864-.217 1.71-.382 2.542-.548l2.541-.49 1.271-.243 1.271-.3c6.673-1.618 13.25-3.701 19.801-5.823 6.552-2.122 13.072-4.39 19.573-6.684l9.748-3.472 2.433-.873c.216-.077.369-.14.674-.236l.413-.115h.05a.502.502 0 0 0-.419.204c-.05.09 0 0 0 0l.051-.127c.153-.376.299-.79.439-1.192l1.684-4.893 6.456-19.644 6.47-19.752 6.563-19.676.051-.16.14-.088 2.872-1.848.172-.109.229.058c.243.044.493.044.737 0 .282-.058.557-.148.82-.268a6.392 6.392 0 0 0 1.48-1.032 12.485 12.485 0 0 0 2.288-2.982c1.22-2.217 1.735-4.791 2.415-7.321v.153a3.138 3.138 0 0 0-.826-1.574 10.635 10.635 0 0 0-1.475-1.344 24.69 24.69 0 0 0-3.457-2.173 38.797 38.797 0 0 0-3.73-1.733 28.752 28.752 0 0 0-1.906-.701 8.654 8.654 0 0 0-1.907-.427l.166-.032a13.079 13.079 0 0 0-4.449 3.186 13.982 13.982 0 0 0-2.745 4.766c-.6 1.77-.98 3.61-1.13 5.473a55.811 55.811 0 0 0-.166 5.658v.09l-.038.07c-2.275 4.995-4.493 10.003-6.832 14.967-2.338 4.963-4.664 9.927-7.079 14.852-1.226 2.453-2.427 4.919-3.698 7.347-.635 1.216-1.27 2.446-1.906 3.65l-1.951 3.626c-.636 1.204-1.36 2.39-2.034 3.58-.673 1.192-1.417 2.352-2.129 3.53a38.528 38.528 0 0 1-2.332 3.416c-.394.567-.87 1.083-1.321 1.612-.261.248-.49.51-.776.74-.159.107-.292.222-.47.324l-.299.127a.634.634 0 0 1-.21 0h-.12a.514.514 0 0 1-.197-.089l.267.064c-5.783 1.24-11.57 2.432-17.361 3.574a499.606 499.606 0 0 1-8.712 1.644c-2.91.523-5.821 1.026-8.75 1.434h-.095c-1.094-.217-2.18-.465-3.273-.637s-2.193-.395-3.299-.516c-2.205-.319-4.448-.472-6.646-.574a62.997 62.997 0 0 0-6.673.134 42.077 42.077 0 0 0-6.577.962h-.076l-16.21-1.153v-.414l16.216 1.153 1.792.127-1.78.243c-6.157.828-12.327 1.58-18.523 2.064-3.1.236-6.208.401-9.322.389-1.56 0-3.117-.096-4.664-.287a11.197 11.197 0 0 1-2.294-.535 2.89 2.89 0 0 1-1.036-.637.976.976 0 0 1-.28-.6.938.938 0 0 1 .204-.637v.07l3.622-31.444.152.013z"/>
        <path fill="#000" fill-rule="nonzero" d="M162.708 154s9.31 25.156 7.255 34.406c-1.127 5.09-4.799 10.587-7.879 14.525a69.422 69.422 0 0 1-4.658 5.407c.06 6.26.54 12.51 1.438 18.705 1.438 9.244 8.222 21.574 0 38.84 0 2.673-9.253 23.636-12.13 74.602 0 6.165-3.697 113.881-3.697 113.881l12.537 58.366 4.728 18.698.821 15.008-9.246-9.454-7.332-31.581S135 543.97 127 553.423c3.29 3.907 61.47 11.714 72.154 7.196 10.685-4.517 17.068-48.918 17.068-48.918l2.05-67.68s3.5 30.144 17.24 33.433c0 6.572-3.82 43.02-3.82 43.02l6.855 39.446-14.803-1.095s4.111-20.282-3.563-27.408c-.548-10.955-1.91-29.042-1.91-29.042l-2.462 31.81s-4.385 5.726-.821 18.908L213.339 562l27.69-.687-7.268-39.165 5.893-43.733s7.541-17.814 10.895-42.537c5.002-2.545 16.451-26.084 16.451-26.084l-18.595-105.865.572 106.367s-24.997 9.868-34.702 15.072c5.645-11.242 23.998-89.03 23.998-95.896-2.774 10.396-63.868 161.928-78.117 183.864-1.273-12.33 1.91-45.762 1.91-45.762l50.179-83.038-50.434 69.875 20.829-66.038s50.911-88.51 52.871-98.924c-8.737 11.235-57.803 87.962-66.025 91.798 3.818-7.946 55.92-92.346 55.92-92.346s-70.608 95.082-74.503 96.462c-3.895 1.38-3.074-73.984 1.317-79.468 3.564 3.015 13.702 21.376 28.504 14.25 4.932-1.908 19.187-13.43 19.187-13.43l-15.095 6.025s-17.265 10.688-30.973-20.823c6.854-14.525 6.307-15.905 6.307-15.905s16.991 26.58 26.035 28.502c-2.463-3.563-24.667-26.58-21.924-38.363 5.205 7.125 18.64 31.237 21.637 30.69-1.909-6.852-27.066-82.758-27.066-82.758s15.554 35.355 24.877 35.355c-4.907-11.503-20.53-43.294-20.53-43.294s17.545-21.097 5.212-41.92C164.28 154 162.708 154 162.708 154zM165 152.343l17.356 19.286s40.582 8.254 51.279 15.398V206l5.208-6.87s7.003-23.652 26.397-26.537c8.64-2.024 54.97-13.126 56.76-18.143-8.57.957-26.938 4.532-45.587 10.852-12.6 4.412-30.974 11.574-24.658-9.046-8.233 3.569-15.917 12.372-15.631 26.94-7.124-2.47-32.076-13.246-50.731-14.044A254.712 254.712 0 0 0 168.546 150L165 152.343z"/>
        <path fill="#000" fill-rule="nonzero" d="M209.144 118.727L211.37 116l1.258 17.677 13.277 13.312L241 149.22s-30.441 5.212-34.963 1.36c-.434-1.335 3.107-31.854 3.107-31.854zM226.253 223.484l-23.93-26.604s13.6-8.73 16.499 0c4.718 7.483 7.431 11.362 7.431 11.362l2.063-8.454 5.363 27.852L240 199.1s-6.902 57.145-5.995 63.418a33.952 33.952 0 0 1 5.433 7.482l-9.89-7.482-14.736 5.854 7.591-12.327s-33.552-6.929-39.739-17.043c-2.062-6.51-5.223-29.672-5.223-29.672l20.036 32.56 29.051-1.524-.409-1.634s-43.455-27.71-52.119-39.053c11.142 7.894 52.662 34.742 52.662 34.742l-.134-1.66s-28.879-19.397-36.164-27.986c10.312 6.247 35.89 18.709 35.89 18.709z"/>
        <path fill="#000" fill-rule="nonzero" d="M208.016 121.415s-14.24 1.79-17.816-.895c-3.577-2.685-3.16-7.847 3.993-8.52 8 2.505 15.993 3.795 15.804 5.55-.19 1.756-1.98 3.865-1.98 3.865zM212 115.576l3.744 12.848L225 134l-3.348-11.589h2.366L214.262 109s-1.085 6.576-2.262 6.576z"/>
        <path stroke="#000" d="M241.258 150s1.67-9.815 0-12.475-16.524-13.583-16.524-13.583l1.042-13.418-11.389-11.658s-12.392-8.422-18.485-10.302a8.63 8.63 0 0 0-1.496-.336 46.042 46.042 0 0 1-4.396 3.888l-6.06 1.431-12.95 9.41V92.32s12.34-13.931 20.913-13.298c8.573.633 16.925 0 26.547 10.84v11.868"/>
        <path fill="#000" fill-rule="nonzero" d="M203.734 90.187c4.082 3.564 7.817 5.092 9.363 3.895.467-.419.75-1.007.79-1.636a19.038 19.038 0 0 0-1.723-4.519c-2.48-4.596-6.07-6.569-5.843-6.893.227-.325 4.417 1.725 8.43 5.372A36.252 36.252 0 0 1 218 89.773V103c-15.143-8.661-22.469-13.505-21.977-14.532.248-.552 2.819.021 7.71 1.719z"/>
        <path fill="#000" fill-rule="nonzero" d="M201 84c1.75.867 3.286 1.87 4.883 2.756.783.45 1.596.853 2.434 1.209a5.481 5.481 0 0 0 2.683.48c-.41.3-.903.483-1.422.53a5.209 5.209 0 0 1-1.556-.081 9.396 9.396 0 0 1-2.797-1.06 13.336 13.336 0 0 1-2.34-1.69A10.042 10.042 0 0 1 201 84zM183 87a17.143 17.143 0 0 0 2.315-.98 19.425 19.425 0 0 0 4.103-2.733 20.044 20.044 0 0 0 1.752-1.711l.14-.149.187-.037a21.241 21.241 0 0 1 2.697-.341 18.82 18.82 0 0 1 2.709 0c.905.075 1.8.241 2.673.496a7.77 7.77 0 0 1 2.424 1.24 10.968 10.968 0 0 0-2.545-.62c-.857-.102-1.72-.14-2.582-.118-.86 0-1.721.068-2.582.173a24.22 24.22 0 0 0-2.546.366l.322-.186c-.6.645-1.248 1.24-1.94 1.78a13.94 13.94 0 0 1-2.2 1.413c-.766.4-1.568.726-2.394.973-.823.252-1.674.398-2.533.434zM193 96l3.744-3.8 5.81 3.8.446-5.465L199.479 89l-1.01 2.185h-1.384zM192.052 104.342c.943-.449 1.935-.78 2.955-.986a15.657 15.657 0 0 1 3.096-.356c.527 0 1.054 0 1.574.068.528.061 1.05.167 1.561.316.26.06.515.145.76.253.253.087.499.195.734.322.234.15.467.274.668.438.204.17.4.35.587.541a.035.035 0 0 1 .006.048.033.033 0 0 1-.046.007 7.071 7.071 0 0 0-2.822-1.089 14.49 14.49 0 0 0-3.029-.22 29.06 29.06 0 0 0-6.05.727.046.046 0 0 1-.04 0 .042.042 0 0 1 0-.041l.046-.028z"/>
        <path fill="#000" fill-rule="nonzero" d="M195.267 105.48a1.54 1.54 0 0 1 .666-.727 2 2 0 0 1 .927-.253c.335-.01.667.071.96.233.306.16.543.425.667.747a2.82 2.82 0 0 0-1.574-.373 3.673 3.673 0 0 0-1.586.373v-.047l-.06.047z" opacity=".6"/>
        <path stroke="#000" stroke-width="3" d="M172.149 146.136c-.561-.412-12.149-17.402-12.149-17.402s6.521-16.585 9.273-16.99c2.752-.406 1.891-32.777 1.891-32.777s11.556-15.539 24.128-12.04c4.565-.508 7.5-8.43 23.085 12.04 0 8.942-.424 24.037-.424 24.037l7.376 7.51 1.265 12.516s15.376 10.412 16.218 14.506c0 4.709.423 10.646 0 11.464"/>
        <path fill="#000" fill-rule="nonzero" d="M176 88v-4.774S183.832 73.22 188 72c-2.812 2.201-10.712 9.277-10.936 15.094L176 88zM115.308 349c-1.601-.096-2.909-.597-3.63-1.668 0 0-1.37-14.112-4.394-11.604-3.023 2.508-6.047 7.185-1.646 11.604-.548 2.207-9.344-4.971-3.827-9.949.823-1.924 9.887-11.052 9.887-11.052s3.827-7.178 2.2-13.534c.409-2.49 2.68-10.565 2.68-10.565s15.448-31.502 14.42-49.944c.052-3.104 9.887-28.179 15.245-34.189 0-2.694 5.358-34.805 12.757-43.099-1.027 8.082-2.264 31.707-2.264 31.707v5.33l-19.773 41.085s2.06 17.403-6.596 26.107c-5.357 12.83-13.598 30.668-13.598 30.668s-.415 26.941-2.883 35.64M143.965 455l-.93-2M176.29 98.82v10.84L173 142.208l1.77 3.793 6.737-5.455v-24.348s2.78-3.515.754-5.386c-2.026-1.87-4.101-5.056-4.428-13.811l-1.542 1.82zM335.14 85.57s.963-9.46.851-11.97c-.112-2.51-1.997 3.122-1.991 11.849 1.14 1.164 1.14.122 1.14.122zM339 80c1.598-.733 2.933-1.984 3.812-3.572 1.532-2.818 1.198-7.792 1.054-8.428M352 72s-.828 9.235-4 10"/>
        <path fill="#000" fill-rule="nonzero" d="M335 86l8.058-5L352 84.336M344.666 114.789l42.47-.315 2.864 8.683L312 151v-8.28l32.666-27.931L344.224 88z"/>
        <path fill="#000" fill-rule="nonzero" d="M311.208 150.42L295 243s18.582-81.907 18.967-88.43c.386-6.521-2.76-4.15-2.76-4.15z"/>
        <path stroke="#000" d="M309 245l5.947-97L343 241.304"/>
        <path fill="#000" fill-rule="nonzero" d="M342 241.79c0 2.434-7.748 15.21-22.694 15.21C304.359 257 292 245.845 292 243.41c0-2.433 6.547-.107 21.493-.107 14.947 0 28.507-3.94 28.507-1.513zM383.908 122L376 211s10.406-84.886 9.988-86.506a4.226 4.226 0 0 0-2.08-2.494z"/>
        <path stroke="#000" d="M387 123l13 87M388 121l35 83"/>
        <path fill="#000" fill-rule="nonzero" d="M425 204.135c0-2.391-16.308-.31-25.822 0-13.574.438-23.178 4.686-23.178 7.078 0 2.391 13.721 11.787 27.314 11.787S425 206.52 425 204.135zM119 570h159v22H119z"/>
    </g>
</svg>
