<svg xmlns="http://www.w3.org/2000/svg" width="63" height="61" viewBox="0 0 63 61">
    <g fill="#000" fill-rule="nonzero">
        <path d="M45.699 9.093V9.08zM54.319.598H16.233c-4.737.007-8.575 3.806-8.582 8.495v34.429c-4.712.51-8.114 4.703-7.6 9.366.477 4.321 4.173 7.59 8.565 7.572h31.027c4.737-.007 8.575-3.806 8.582-8.494V17.587h6.094c4.74 0 8.582-3.803 8.582-8.494C62.9 4.4 59.058.598 54.319.598zm-20.757 57.35H8.616c-3.341 0-6.05-2.682-6.05-5.988 0-3.307 2.709-5.988 6.05-5.988h24.946a8.42 8.42 0 0 0 0 11.975zM45.699 9.091v42.874c0 3.303-2.706 5.981-6.043 5.981-3.338 0-6.043-2.678-6.043-5.981s2.705-5.981 6.043-5.981c.7 0 1.27-.563 1.27-1.257s-.57-1.256-1.27-1.256H10.24V9.092c.007-3.28 2.677-5.946 5.992-5.98h31.954a8.424 8.424 0 0 0-2.488 5.98zm7.35 5.982h-4.811v-2.06h4.811v2.06zm2.54-.126v-3.192c0-.693-.57-1.256-1.27-1.256h-6.081V9.093c.009-3.304 2.721-5.974 6.059-5.965 3.337.008 6.035 2.693 6.027 5.997-.008 2.798-1.975 5.218-4.736 5.823z"/>
        <path d="M36.737 12.5H18.263c-.698 0-1.263.672-1.263 1.5s.565 1.5 1.263 1.5h18.474c.698 0 1.263-.672 1.263-1.5s-.565-1.5-1.263-1.5zM36.737 21.5H18.263c-.698 0-1.263.672-1.263 1.5s.565 1.5 1.263 1.5h18.474c.698 0 1.263-.672 1.263-1.5s-.565-1.5-1.263-1.5zM36.737 30.5H18.263c-.698 0-1.263.672-1.263 1.5s.565 1.5 1.263 1.5h18.474c.698 0 1.263-.672 1.263-1.5s-.565-1.5-1.263-1.5z"/>
    </g>
</svg>
