<svg xmlns="http://www.w3.org/2000/svg" width="227" height="37" viewBox="0 0 227 37">
    <g fill="none" fill-rule="evenodd">
        <g stroke-width=".5">
            <path fill="#000" stroke="#000" d="M38.749 14.654a7.438 7.438 0 0 1 2.799 2.842c.675 1.204 1.012 2.544 1.012 4.022 0 1.478-.314 2.82-.942 4.022-.628 1.204-1.49 2.146-2.588 2.829-1.097.682-2.32 1.023-3.67 1.023a6.87 6.87 0 0 1-3.039-.682 6.903 6.903 0 0 1-2.39-1.905v7.675c0 .436-.132.786-.395 1.051-.262.266-.61.398-1.04.398-.413 0-.755-.132-1.027-.398-.272-.265-.408-.615-.408-1.051V21.518c0-1.478.342-2.818 1.027-4.022a7.605 7.605 0 0 1 2.784-2.842c1.173-.692 2.48-1.037 3.925-1.037 1.444 0 2.761.345 3.952 1.037zm-1.407 11.483a5 5 0 0 0 1.8-1.904c.441-.805.662-1.71.662-2.715 0-1.004-.22-1.913-.661-2.728a4.973 4.973 0 0 0-1.8-1.919c-.76-.464-1.609-.696-2.546-.696-.938 0-1.787.232-2.546.696a4.87 4.87 0 0 0-1.786 1.919c-.432.815-.647 1.724-.647 2.728 0 1.005.215 1.91.647 2.715a4.896 4.896 0 0 0 1.786 1.904c.76.465 1.608.697 2.546.697.937 0 1.786-.232 2.545-.697zm10.913 2.658c-1.125-.398-2.006-.92-2.644-1.563a1.21 1.21 0 0 1-.366-.882c0-.454.188-.824.563-1.108.356-.265.684-.398.984-.398.375 0 .732.17 1.07.512.356.398.89.743 1.603 1.037a5.92 5.92 0 0 0 2.278.44c1.07 0 1.899-.18 2.49-.54.59-.36.886-.843.886-1.449 0-.587-.29-1.075-.872-1.464-.582-.388-1.566-.715-2.954-.98-3.6-.702-5.4-2.199-5.4-4.491 0-.929.271-1.715.815-2.36.544-.644 1.256-1.127 2.138-1.45a8.13 8.13 0 0 1 2.813-.482c1.219 0 2.311.199 3.277.597.966.397 1.73.947 2.293 1.648.243.303.365.606.365.91 0 .322-.16.616-.478.88-.206.152-.469.228-.788.228-.487 0-.928-.18-1.322-.54-.469-.436-.965-.744-1.49-.924-.526-.18-1.163-.27-1.913-.27-.863 0-1.571.147-2.124.44-.553.295-.83.707-.83 1.237 0 .38.094.697.281.953.188.255.544.492 1.07.71.524.218 1.284.431 2.278.64 2.044.417 3.492.994 4.346 1.734.853.739 1.28 1.695 1.28 2.87 0 .872-.235 1.663-.704 2.374-.468.71-1.158 1.27-2.067 1.677-.91.407-2.002.61-3.277.61a10.72 10.72 0 0 1-3.6-.596zM76.223 7.477c.262.265.393.616.393 1.052V21.49c0 1.478-.342 2.819-1.026 4.022a7.605 7.605 0 0 1-2.785 2.842c-1.172.692-2.48 1.038-3.924 1.038s-2.762-.346-3.952-1.038a7.438 7.438 0 0 1-2.8-2.842c-.675-1.203-1.012-2.544-1.012-4.022 0-1.478.314-2.819.942-4.022.628-1.203 1.491-2.146 2.588-2.828 1.097-.682 2.32-1.023 3.671-1.023 1.088 0 2.1.227 3.038.682a6.903 6.903 0 0 1 2.391 1.904V8.53c0-.436.136-.787.408-1.052.272-.265.614-.398 1.027-.398.431 0 .778.133 1.04.398zm-4.796 18.66a4.87 4.87 0 0 0 1.786-1.918c.431-.815.647-1.725.647-2.729s-.216-1.91-.647-2.714a4.896 4.896 0 0 0-1.786-1.905c-.76-.464-1.609-.696-2.546-.696-.938 0-1.786.232-2.546.696a5 5 0 0 0-1.8 1.905c-.441.805-.661 1.71-.661 2.714s.22 1.914.66 2.729a4.973 4.973 0 0 0 1.801 1.918c.76.465 1.608.697 2.546.697.937 0 1.786-.232 2.546-.697zm17.467.697c.234.265.352.606.352 1.023 0 .417-.155.758-.465 1.023-.309.266-.707.398-1.195.398h-.506a4.595 4.595 0 0 1-2.518-.725 5.03 5.03 0 0 1-1.786-1.975c-.432-.834-.647-1.772-.647-2.814v-7.02h-1.294c-.394 0-.713-.114-.957-.342a1.118 1.118 0 0 1-.365-.853c0-.379.122-.682.365-.91.244-.227.563-.34.957-.34h1.294v-4.093c0-.417.131-.758.394-1.024.262-.265.6-.397 1.012-.397.413 0 .75.132 1.013.397.262.266.394.607.394 1.024v4.093h2.39c.395 0 .713.113.957.34.244.228.366.531.366.91 0 .342-.122.626-.366.853-.244.228-.562.341-.956.341h-2.391v7.02c0 .759.206 1.394.619 1.905.412.512.919.768 1.519.768h.956c.338 0 .624.132.858.398zm5.863 1.549a7.095 7.095 0 0 1-2.757-2.8c-.656-1.194-.984-2.549-.984-4.065 0-1.534.328-2.899.984-4.093a7.095 7.095 0 0 1 2.757-2.8c1.182-.672 2.522-1.008 4.023-1.008 1.481 0 2.808.336 3.98 1.009a7.22 7.22 0 0 1 2.757 2.8c.666 1.193.998 2.558.998 4.092 0 1.516-.328 2.871-.984 4.065a7.122 7.122 0 0 1-2.743 2.8c-1.172.672-2.508 1.009-4.008 1.009s-2.841-.337-4.023-1.01zm6.597-2.231a4.695 4.695 0 0 0 1.772-1.89c.422-.806.633-1.72.633-2.744 0-1.023-.211-1.942-.633-2.757a4.673 4.673 0 0 0-1.772-1.904c-.76-.455-1.618-.682-2.574-.682-.957 0-1.815.227-2.574.682a4.77 4.77 0 0 0-1.786 1.904c-.432.815-.647 1.734-.647 2.757 0 1.024.215 1.938.647 2.743a4.793 4.793 0 0 0 1.786 1.89c.76.455 1.617.683 2.574.683.956 0 1.814-.228 2.574-.682zm19.238-11.711c1.032.568 1.838 1.397 2.42 2.487.58 1.09.871 2.402.871 3.937v6.992c0 .417-.136.763-.408 1.037a1.385 1.385 0 0 1-1.026.413c-.413 0-.755-.138-1.027-.413-.272-.274-.408-.62-.408-1.037v-6.992c0-1.535-.408-2.696-1.224-3.482-.815-.787-1.898-1.18-3.249-1.18-.787 0-1.505.161-2.152.483-.647.323-1.153.758-1.519 1.308a3.26 3.26 0 0 0-.548 1.847v8.016c0 .417-.131.763-.394 1.037-.262.275-.61.413-1.04.413-.413 0-.756-.138-1.027-.413-.272-.274-.408-.62-.408-1.037V8.529c0-.436.136-.787.408-1.052.271-.265.614-.398 1.026-.398.432 0 .779.133 1.041.398.263.265.394.616.394 1.052v6.964a6.247 6.247 0 0 1 2.138-1.407 7.024 7.024 0 0 1 2.644-.498c1.294 0 2.457.284 3.488.853zm21.603-.341c.262.265.393.616.393 1.051V27.83c0 .416-.13.762-.393 1.037-.263.275-.61.412-1.041.412-.413 0-.755-.137-1.027-.412-.272-.275-.408-.62-.408-1.037v-.313a6.247 6.247 0 0 1-2.138 1.407 7.024 7.024 0 0 1-2.644.497c-1.294 0-2.457-.284-3.488-.852-1.031-.569-1.838-1.398-2.42-2.488-.58-1.09-.871-2.401-.871-3.936V15.15c0-.416.136-.762.408-1.037a1.385 1.385 0 0 1 1.026-.412c.413 0 .755.137 1.027.412.272.275.408.62.408 1.037v6.993c0 1.535.408 2.695 1.224 3.482.816.786 1.899 1.18 3.249 1.18.787 0 1.505-.162 2.152-.484.647-.322 1.153-.758 1.519-1.307a3.26 3.26 0 0 0 .548-1.848v-8.016c0-.435.136-.786.408-1.051.272-.265.614-.398 1.027-.398.431 0 .778.133 1.04.398zm16.278.54c1.097.682 1.96 1.625 2.588 2.828.628 1.203.942 2.544.942 4.022 0 1.478-.338 2.819-1.013 4.022a7.438 7.438 0 0 1-2.799 2.842c-1.19.692-2.508 1.038-3.952 1.038s-2.752-.346-3.924-1.038a7.605 7.605 0 0 1-2.785-2.842c-.684-1.203-1.027-2.544-1.027-4.022V8.529c0-.436.136-.787.408-1.052.272-.265.614-.398 1.027-.398.431 0 .778.133 1.04.398.263.265.395.616.395 1.052v7.674a6.903 6.903 0 0 1 2.39-1.904 6.87 6.87 0 0 1 3.039-.682c1.35 0 2.574.34 3.67 1.023zm-1.498 11.497a4.973 4.973 0 0 0 1.8-1.918c.441-.815.661-1.725.661-2.729s-.22-1.91-.66-2.714a5 5 0 0 0-1.801-1.905c-.76-.464-1.608-.696-2.546-.696-.937 0-1.786.232-2.546.696a4.896 4.896 0 0 0-1.786 1.905c-.431.805-.647 1.71-.647 2.714s.216 1.914.647 2.729a4.87 4.87 0 0 0 1.786 1.918c.76.465 1.609.697 2.546.697.938 0 1.786-.232 2.546-.697zm35.049-11.483a7.438 7.438 0 0 1 2.799 2.842c.675 1.204 1.012 2.544 1.012 4.022 0 1.478-.314 2.82-.942 4.022-.628 1.204-1.491 2.146-2.588 2.829-1.097.682-2.32 1.023-3.671 1.023a6.87 6.87 0 0 1-3.038-.682 6.903 6.903 0 0 1-2.391-1.905v7.675c0 .436-.131.786-.394 1.051-.262.266-.61.398-1.04.398-.413 0-.756-.132-1.027-.398-.272-.265-.408-.615-.408-1.051V21.518c0-1.478.342-2.818 1.026-4.022a7.605 7.605 0 0 1 2.785-2.842c1.172-.692 2.48-1.037 3.924-1.037s2.762.345 3.953 1.037zm-1.407 11.483a5 5 0 0 0 1.8-1.904c.441-.805.662-1.71.662-2.715 0-1.004-.22-1.913-.662-2.728a4.973 4.973 0 0 0-1.8-1.919c-.76-.464-1.608-.696-2.546-.696-.937 0-1.786.232-2.545.696a4.87 4.87 0 0 0-1.787 1.919c-.43.815-.647 1.724-.647 2.728 0 1.005.216 1.91.647 2.715a4.896 4.896 0 0 0 1.787 1.904c.76.465 1.608.697 2.545.697.938 0 1.787-.232 2.546-.697zm11.68 2.246a7.095 7.095 0 0 1-2.757-2.8c-.657-1.194-.985-2.549-.985-4.065 0-1.534.328-2.899.985-4.093a7.095 7.095 0 0 1 2.756-2.8c1.182-.672 2.523-1.008 4.023-1.008 1.481 0 2.808.336 3.98 1.009a7.22 7.22 0 0 1 2.757 2.8c.666 1.193.999 2.558.999 4.092 0 1.516-.329 2.871-.985 4.065a7.122 7.122 0 0 1-2.743 2.8c-1.172.672-2.508 1.009-4.008 1.009s-2.841-.337-4.023-1.01zm6.596-2.231a4.695 4.695 0 0 0 1.772-1.89c.422-.806.633-1.72.633-2.744 0-1.023-.211-1.942-.633-2.757a4.673 4.673 0 0 0-1.772-1.904c-.76-.455-1.618-.682-2.574-.682-.957 0-1.814.227-2.574.682a4.77 4.77 0 0 0-1.786 1.904c-.432.815-.647 1.734-.647 2.757 0 1.024.215 1.938.647 2.743a4.793 4.793 0 0 0 1.786 1.89c.76.455 1.617.683 2.574.683.956 0 1.814-.228 2.574-.682zm16.651.682c.235.265.352.606.352 1.023 0 .417-.155.758-.464 1.023-.31.266-.708.398-1.196.398h-.506a4.595 4.595 0 0 1-2.518-.725 5.03 5.03 0 0 1-1.786-1.975c-.431-.834-.647-1.772-.647-2.814v-7.02h-1.294c-.394 0-.712-.114-.956-.342a1.118 1.118 0 0 1-.366-.853c0-.379.122-.682.366-.91.244-.227.562-.34.956-.34h1.294v-4.093c0-.417.132-.758.394-1.024.263-.265.6-.397 1.013-.397.412 0 .75.132 1.012.397.263.266.394.607.394 1.024v4.093h2.391c.394 0 .713.113.957.34.243.228.365.531.365.91 0 .342-.122.626-.365.853-.244.228-.563.341-.957.341h-2.39v7.02c0 .759.206 1.394.618 1.905.413.512.919.768 1.52.768h.956c.337 0 .623.132.857.398z"/>
            <path fill="#E6004E" stroke="#E6004E" d="M166.322 28.075c-1.41-.788-2.38-1.818-2.911-3.09-.089-.214-.133-.393-.133-.536 0-.269.097-.506.292-.712.195-.206.461-.345.798-.417a.924.924 0 0 1 .266-.026c.283 0 .553.085.81.255.257.17.448.398.572.685.319.698.948 1.289 1.887 1.773.94.483 1.976.725 3.11.725 1.33 0 2.455-.31 3.377-.927.921-.618 1.382-1.464 1.382-2.538 0-1.021-.39-1.894-1.17-2.62-.78-.724-1.967-1.168-3.562-1.329-2.197-.215-3.925-.864-5.184-1.947-1.258-1.084-1.887-2.44-1.887-4.07 0-1.146.324-2.135.97-2.968.647-.832 1.533-1.468 2.659-1.907 1.125-.438 2.388-.658 3.788-.658 1.524 0 2.809.314 3.854.94 1.046.627 1.932 1.522 2.658 2.686.213.34.32.663.32.967 0 .394-.178.717-.532.967a1.25 1.25 0 0 1-.691.188c-.266 0-.514-.067-.745-.201a1.375 1.375 0 0 1-.531-.55c-.479-.807-1.077-1.42-1.795-1.84-.717-.421-1.626-.632-2.724-.632-1.347 0-2.437.264-3.27.792-.833.529-1.25 1.294-1.25 2.297 0 .931.373 1.71 1.117 2.337.744.627 2.073 1.039 3.987 1.236 2.127.214 3.775.864 4.945 1.947 1.17 1.083 1.754 2.511 1.754 4.284 0 1.29-.345 2.395-1.036 3.317-.692.923-1.609 1.612-2.752 2.069-1.143.456-2.37.685-3.681.685-1.72 0-3.283-.394-4.692-1.182z"/>
        </g>
        <g fill="#E6004E" fill-rule="nonzero">
            <path d="M10.28 28.146L6.595 17.762l4.947-1.653 3.683 10.384z"/>
            <path d="M7.526 15.954l7.424-8.289 3.948 3.332-7.423 8.288z"/>
            <path d="M25.937 13.066L14.831 10.97l.998-4.985 11.107 2.096zM22.294 32.627l-11.107-2.095.998-4.985 11.107 2.095z"/>
            <path d="M16.953 28.316l-8 7.766-3.7-3.591 8-7.766zM11.107 20.486L.039 18.203l1.088-4.967 11.067 2.283zM16.337.121l3.684 10.384-4.947 1.654L11.39 1.775z"/>
        </g>
    </g>
</svg>
