<svg xmlns="http://www.w3.org/2000/svg" width="32" height="32" viewBox="0 0 32 32">
    <g fill="none" fill-rule="evenodd" transform="translate(1 1)">
        <path fill="#E6004E" fill-rule="nonzero" d="M23.09 22.01a1.381 1.381 0 0 0-.535-1.11l-4.042-3.15a1.393 1.393 0 0 0-1.692-.013l-.988.745a.641.641 0 0 1-.855-.072 25.28 25.28 0 0 1-1.745-2.078 25.289 25.289 0 0 1-1.517-2.251.641.641 0 0 1 .167-.842l.988-.744a1.393 1.393 0 0 0 .453-1.63L11.41 6.11a1.381 1.381 0 0 0-.918-.82 1.38 1.38 0 0 0-1.21.229L7.794 6.642c-1.039.782-1.288 2.447-.7 4.686.564 2.153 1.836 4.614 3.582 6.93 1.745 2.317 3.76 4.219 5.675 5.355.98.581 1.881.93 2.668 1.04.812.114 1.502-.025 2.03-.422l1.488-1.122c.348-.263.55-.663.554-1.1zm-4.755-3.86l3.97 3.347a.873.873 0 0 1 .3.69.925.925 0 0 1-.236.607l-5.28-4.418.27-.223a.752.752 0 0 1 .976-.004zm-8.15-12.442c.265.07.477.246.582.481l2.123 4.753a.756.756 0 0 1-.273.939l-.266.183L9.539 5.77a.914.914 0 0 1 .647-.06zm10.279 18.153c-.82.619-2.287.382-4.024-.65-1.84-1.091-3.783-2.928-5.474-5.171-1.69-2.243-2.92-4.618-3.463-6.686-.512-1.954-.336-3.43.485-4.048l1.098-.827 2.524 6.266-.256.193a1.216 1.216 0 0 0-.314 1.596c.461.773.98 1.543 1.542 2.289.562.745 1.159 1.456 1.775 2.113a1.216 1.216 0 0 0 1.621.137l.233-.175 5.35 4.137-1.097.826z"/>
        <circle cx="15" cy="15" r="15" stroke="#E6004E"/>
    </g>
</svg>
