<svg xmlns="http://www.w3.org/2000/svg" width="32" height="32" viewBox="0 0 32 32">
    <g fill="none" fill-rule="evenodd" transform="translate(1 1)">
        <path fill="#E6004E" fill-rule="nonzero" d="M15.393 8.696a3.49 3.49 0 0 0-3.486 3.486 3.49 3.49 0 0 0 3.486 3.486 3.49 3.49 0 0 0 3.486-3.486 3.49 3.49 0 0 0-3.486-3.486zm0 5.976a2.493 2.493 0 0 1-2.49-2.49 2.493 2.493 0 0 1 2.49-2.49 2.493 2.493 0 0 1 2.49 2.49 2.493 2.493 0 0 1-2.49 2.49z"/>
        <path fill="#E6004E" fill-rule="nonzero" d="M20.451 7.123A7.202 7.202 0 0 0 15.326 5 7.201 7.201 0 0 0 10.2 7.123c-2.534 2.534-2.849 7.3-.682 10.188l5.808 8.387 5.799-8.375c2.175-2.9 1.86-7.666-.674-10.2zm.06 9.758l-5.185 7.489-5.194-7.5c-1.966-2.621-1.684-6.926.603-9.212a6.45 6.45 0 0 1 4.59-1.902c1.735 0 3.365.675 4.592 1.902 2.287 2.286 2.568 6.59.594 9.223z"/>
        <circle cx="15" cy="15" r="15" stroke="#E6004E"/>
    </g>
</svg>
