<svg xmlns="http://www.w3.org/2000/svg" width="88" height="72" viewBox="0 0 88 72">
    <path fill="#E6004E" fill-rule="evenodd" d="M11.339 72L2.602 59.907c5.165-2.906 9.147-6.34 11.947-10.305 2.8-3.965 4.328-8.53 4.588-13.695h-.398c-9.855 0-17.844-8.015-17.844-17.9C.895 8.12 8.884.104 18.739.104c.506 0 1.006.021 1.501.063l.002-.063c15.245 2.131 22.07 11.978 20.474 29.54C39.12 47.208 29.327 61.326 11.339 72zm48.057 0L50.66 59.907c5.165-2.906 9.148-6.34 11.947-10.305 2.8-3.965 4.329-8.53 4.588-13.695h-.398c-9.855 0-17.844-8.015-17.844-17.9 0-9.887 7.99-17.902 17.844-17.902.506 0 1.007.021 1.502.063l.001-.063c15.245 2.131 22.07 11.978 20.474 29.54C87.177 47.208 77.385 61.326 59.396 72z"/>
</svg>
