<svg xmlns="http://www.w3.org/2000/svg" width="88" height="72" viewBox="0 0 88 72">
    <path fill="#E6004E" fill-rule="evenodd" d="M77.568 0l8.727 12.111c-5.16 2.91-9.137 6.35-11.933 10.32-2.796 3.97-4.323 8.542-4.582 13.715h.397C80.02 36.146 88 44.172 88 54.073 88 63.973 80.02 72 70.177 72c-.505 0-1.004-.021-1.498-.062l-.003.062c-15.227-2.134-22.044-11.995-20.45-29.583C49.822 24.829 59.602 10.69 77.569 0zm-48 0l8.727 12.111c-5.16 2.91-9.137 6.35-11.933 10.32-2.796 3.97-4.323 8.542-4.582 13.715h.397C32.02 36.146 40 44.172 40 54.073 40 63.973 32.02 72 22.177 72c-.505 0-1.004-.021-1.498-.062l-.003.062C5.45 69.866-1.368 60.005.226 42.417 1.822 24.829 11.602 10.69 29.569 0z"/>
</svg>
